<svg xmlns="http://www.w3.org/2000/svg" viewBox="0 0 160 160" width="160" height="160"><rect width="160" height="160" rx="28" fill="#f6e2d6"/>
<defs><clipPath id="m"><rect x="38" y="60" width="62" height="66" rx="11"/></clipPath></defs>
<path d="M100 76 h8 a15 15 0 0 1 0 30 h-8" fill="none" stroke="#1b1b3a" stroke-width="7" stroke-linejoin="round" stroke-linecap="round"/>
<rect x="38" y="60" width="62" height="66" rx="11" fill="#f8f5f2"/>
<g clip-path="url(#m)"><rect x="38" y="80" width="62" height="26" fill="#c9b8e8"/>
<g fill="#c98498"><path transform="translate(50 93) scale(.9)" d="M0 9 C-14 -1 -12 -12 -5 -12 C-2 -12 0 -9 0 -8 C0 -9 2 -12 5 -12 C12 -12 14 -1 0 9Z"/><path transform="translate(69 93) scale(.9)" d="M0 9 C-14 -1 -12 -12 -5 -12 C-2 -12 0 -9 0 -8 C0 -9 2 -12 5 -12 C12 -12 14 -1 0 9Z"/><path transform="translate(88 93) scale(.9)" d="M0 9 C-14 -1 -12 -12 -5 -12 C-2 -12 0 -9 0 -8 C0 -9 2 -12 5 -12 C12 -12 14 -1 0 9Z"/></g>
<circle cx="59" cy="86" r="2.5" fill="#d8c098"/><circle cx="79" cy="101" r="2.5" fill="#d8c098"/><circle cx="96" cy="86" r="2.5" fill="#d8c098"/></g>
<rect x="38" y="60" width="62" height="66" rx="11" fill="none" stroke="#1b1b3a" stroke-width="4"/>
<g fill="none" stroke="#c98498" stroke-width="4" stroke-linejoin="round" stroke-linecap="round"><path d="M52 50 q-6 -8 0 -16 q6 -8 0 -16"/><path d="M70 50 q-6 -8 0 -16 q6 -8 0 -16"/><path d="M88 50 q-6 -8 0 -16 q6 -8 0 -16"/></g>
</svg>
